<svg width="22" height="15" viewBox="0 0 22 15" fill="none" xmlns="http://www.w3.org/2000/svg">
<path d="M11.0018 11.577C12.135 11.577 13.0974 11.1804 13.8891 10.3872C14.6808 9.59408 15.0766 8.63092 15.0766 7.49775C15.0766 6.36458 14.68 5.40217 13.8868 4.6105C13.0937 3.81883 12.1305 3.423 10.9973 3.423C9.86417 3.423 8.90175 3.81958 8.11009 4.61275C7.31842 5.40592 6.92259 6.36908 6.92259 7.50225C6.92259 8.63542 7.31917 9.59783 8.11234 10.3895C8.9055 11.1812 9.86867 11.577 11.0018 11.577ZM10.9996 10.2C10.2496 10.2 9.61209 9.9375 9.08709 9.4125C8.56209 8.8875 8.29959 8.25 8.29959 7.5C8.29959 6.75 8.56209 6.1125 9.08709 5.5875C9.61209 5.0625 10.2496 4.8 10.9996 4.8C11.7496 4.8 12.3871 5.0625 12.9121 5.5875C13.4371 6.1125 13.6996 6.75 13.6996 7.5C13.6996 8.25 13.4371 8.8875 12.9121 9.4125C12.3871 9.9375 11.7496 10.2 10.9996 10.2ZM11.0008 14.5C8.70134 14.5 6.60609 13.8657 4.71509 12.597C2.82409 11.3285 1.43175 9.6295 0.538086 7.5C1.43175 5.3705 2.82359 3.6715 4.71359 2.403C6.60375 1.13433 8.69867 0.5 10.9983 0.5C13.2978 0.5 15.3931 1.13433 17.2841 2.403C19.1751 3.6715 20.5674 5.3705 21.4611 7.5C20.5674 9.6295 19.1756 11.3285 17.2856 12.597C15.3954 13.8657 13.3005 14.5 11.0008 14.5ZM10.9996 13C12.8829 13 14.6121 12.5042 16.1871 11.5125C17.7621 10.5208 18.9663 9.18333 19.7996 7.5C18.9663 5.81667 17.7621 4.47917 16.1871 3.4875C14.6121 2.49583 12.8829 2 10.9996 2C9.11625 2 7.38709 2.49583 5.81209 3.4875C4.23709 4.47917 3.03292 5.81667 2.19959 7.5C3.03292 9.18333 4.23709 10.5208 5.81209 11.5125C7.38709 12.5042 9.11625 13 10.9996 13Z" fill="#111111"/>
</svg>
