<svg width="62" height="24" viewBox="0 0 62 24" fill="none" xmlns="http://www.w3.org/2000/svg">
<rect width="62" height="24" rx="12" fill="#231F20"/>
<path d="M17.26 9.44C17.25 11.03 18.33 12.62 19.6 13.2L19.14 13.82C18.15 13.33 17.29 12.3 16.88 11.05C16.48 12.37 15.62 13.47 14.6 13.98L14.12 13.34C15.42 12.75 16.49 11.09 16.5 9.44V7.86H17.26V9.44ZM20.56 15.8V7.12H21.32V15.8H20.56ZM25.7625 8.72C25.7525 9.88 26.6025 10.93 27.8825 11.38L27.5025 11.96C26.5125 11.62 25.7625 10.91 25.3825 10.02C25.0125 11 24.2125 11.77 23.2025 12.14L22.7825 11.54C24.0825 11.08 24.9925 9.97 25.0025 8.72V8.34H23.0225V7.72H27.7025V8.34H25.7625V8.72ZM23.9225 13.44V12.8H29.6025V15.8H28.8425V13.44H23.9225ZM28.8425 12.34V7.12H29.6025V9.4H30.9025V10.06H29.6025V12.34H28.8425ZM38.1851 7.12V10.7H39.6251V11.34H38.1851V15.8H37.4251V7.12H38.1851ZM31.4051 9.14V8.5H33.6451V7.22H34.4051V8.5H36.5651V9.14H31.4051ZM31.9051 11.86C31.8951 10.68 32.7951 9.86 34.0251 9.86C35.2651 9.86 36.1551 10.68 36.1651 11.86C36.1551 13.03 35.2651 13.85 34.0251 13.84C32.7951 13.85 31.8951 13.03 31.9051 11.86ZM32.6451 11.86C32.6351 12.65 33.2251 13.2 34.0251 13.2C34.8351 13.2 35.4251 12.65 35.4251 11.86C35.4251 11.07 34.8351 10.5 34.0251 10.5C33.2251 10.5 32.6351 11.07 32.6451 11.86ZM47.2677 7.12V15.8H46.5077V7.12H47.2677ZM40.2077 13.54C42.5577 12.42 43.7577 10.75 43.9277 8.68H40.6077V8.06H44.7077C44.6977 10.55 43.5377 12.76 40.6277 14.16L40.2077 13.54Z" fill="white"/>
</svg>
