<svg width="40" height="40" viewBox="0 0 40 40" fill="none" xmlns="http://www.w3.org/2000/svg">
<mask id="mask0_13_2031" style="mask-type:alpha" maskUnits="userSpaceOnUse" x="0" y="0" width="40" height="40">
<rect width="40" height="40" fill="#D9D9D9"/>
</mask>
<g mask="url(#mask0_13_2031)">
<path d="M6.77377 30.8334C6.05738 30.8334 5.44377 30.5755 4.93294 30.0597C4.4221 29.5441 4.16669 28.933 4.16669 28.2263V11.7738C4.16669 11.0574 4.4221 10.4438 4.93294 9.933C5.44377 9.42217 6.05738 9.16675 6.77377 9.16675H33.2263C33.9427 9.16675 34.5563 9.42217 35.0671 9.933C35.5779 10.4438 35.8334 11.0574 35.8334 11.7738V28.2263C35.8334 28.933 35.5779 29.5441 35.0671 30.0597C34.5563 30.5755 33.9427 30.8334 33.2263 30.8334H6.77377ZM6.77377 28.7392H33.2263C33.3546 28.7392 33.4722 28.6859 33.5792 28.5792C33.6859 28.4723 33.7392 28.3547 33.7392 28.2263V11.7738C33.7392 11.6455 33.6859 11.5279 33.5792 11.4209C33.4722 11.3142 33.3546 11.2609 33.2263 11.2609H6.77377C6.64544 11.2609 6.5278 11.3142 6.42085 11.4209C6.31419 11.5279 6.26085 11.6455 6.26085 11.7738V28.2263C6.26085 28.3547 6.31419 28.4723 6.42085 28.5792C6.5278 28.6859 6.64544 28.7392 6.77377 28.7392ZM13.1196 26.3676H26.8804V23.8251H13.1196V26.3676ZM8.58752 21.2713H11.1304V18.7288H8.58752V21.2713ZM13.6667 21.2713H16.2096V18.7288H13.6667V21.2713ZM18.7288 21.2713H21.2713V18.7288H18.7288V21.2713ZM23.8075 21.2713H26.3504V18.7288H23.8075V21.2713ZM28.8696 21.2713H31.4125V18.7288H28.8696V21.2713ZM8.58752 16.1647H11.1304V13.6217H8.58752V16.1647ZM13.6667 16.1647H16.2096V13.6217H13.6667V16.1647ZM18.7288 16.1647H21.2713V13.6217H18.7288V16.1647ZM23.8075 16.1647H26.3504V13.6217H23.8075V16.1647ZM28.8696 16.1647H31.4125V13.6217H28.8696V16.1647Z" fill="#959595"/>
</g>
</svg>
