<svg width="30" height="30" viewBox="0 0 30 30" fill="none" xmlns="http://www.w3.org/2000/svg">
<mask id="mask0_13_90" style="mask-type:alpha" maskUnits="userSpaceOnUse" x="0" y="0" width="30" height="30">
<rect width="30" height="30" fill="#D9D9D9"/>
</mask>
<g mask="url(#mask0_13_90)">
<path d="M7.25003 22.9616V21.9616H8.26941V13.3078C8.26941 11.5914 8.82264 10.0977 9.92909 8.82688C11.0358 7.55604 12.4344 6.8101 14.125 6.58906V5.125C14.125 4.88188 14.2098 4.67531 14.3794 4.50531C14.549 4.3351 14.7549 4.25 14.9972 4.25C15.2395 4.25 15.4464 4.3351 15.6178 4.50531C15.7893 4.67531 15.875 4.88188 15.875 5.125V6.58906C17.5657 6.8101 18.9643 7.55604 20.071 8.82688C21.1774 10.0977 21.7307 11.5914 21.7307 13.3078V21.9616H22.75V22.9616H7.25003ZM14.9891 26.2306C14.4995 26.2306 14.0841 26.0574 13.7428 25.7109C13.4014 25.3645 13.2307 24.948 13.2307 24.4616H16.7694C16.7694 24.9584 16.595 25.3775 16.2463 25.7188C15.8977 26.06 15.4787 26.2306 14.9891 26.2306ZM9.26941 21.9616H20.7307V13.3078C20.7307 11.7051 20.1762 10.3493 19.0672 9.24031C17.9583 8.13135 16.6025 7.57688 15 7.57688C13.3975 7.57688 12.0418 8.13135 10.9328 9.24031C9.82388 10.3493 9.26941 11.7051 9.26941 13.3078V21.9616Z" fill="#444444"/>
</g>
</svg>
